<?xml version="1.0" standalone="no"?>
<!DOCTYPE svg PUBLIC "-//W3C//DTD SVG 20010904//EN"
 "http://www.w3.org/TR/2001/REC-SVG-20010904/DTD/svg10.dtd">
<svg version="1.0" xmlns="http://www.w3.org/2000/svg"
 width="1001.000000pt" height="1001.000000pt" viewBox="0 0 1001.000000 1001.000000"
 preserveAspectRatio="xMidYMid meet">
<metadata>
Created by potrace 1.16, written by Peter Selinger 2001-2019
</metadata>
<g transform="translate(0.000000,1001.000000) scale(0.100000,-0.100000)"
fill="#000000" stroke="none">
<path d="M4430 8740 c-2 -3 -8 -246 -16 -540 -12 -543 -24 -714 -65 -958 -22
-136 -76 -340 -108 -414 -22 -53 -21 -55 15 -32 13 9 43 17 66 17 35 0 47 -6
74 -35 64 -70 81 -146 139 -598 19 -157 39 -298 43 -313 7 -27 9 -26 130 96
l123 123 -176 1179 c-184 1240 -221 1483 -225 1475z"/>
<path d="M5552 8653 c-7 -49 -80 -547 -162 -1108 -83 -562 -150 -1027 -150
-1035 0 -8 56 41 125 110 l125 124 31 -29 c17 -17 33 -25 35 -20 25 67 85 125
128 125 12 0 39 -9 60 -19 33 -18 37 -18 31 -3 -75 184 -134 466 -164 787 -6
61 -16 345 -23 633 -6 287 -15 522 -18 522 -3 0 -12 -39 -18 -87z"/>
<path d="M4842 6057 l-642 -642 0 -885 0 -885 485 485 485 485 0 -525 0 -525
-165 -165 -165 -165 0 405 0 405 -320 -320 -320 -320 0 -165 0 -165 160 -160
160 -160 645 645 645 645 0 685 0 685 -485 -485 -485 -485 0 725 0 725 165
165 165 165 0 -595 0 -595 320 320 320 320 0 350 0 350 -163 163 -162 162
-643 -643z"/>
<path d="M5071 5368 c-30 -205 -58 -386 -61 -403 -8 -36 -1 -75 -76 415 l-52
345 -1 -600 -1 -600 235 235 234 235 7 95 6 95 -111 -110 -111 -110 -1 60 c-1
33 -5 208 -8 388 l-6 329 -54 -374z"/>
<path d="M4972 4377 l-154 -154 12 -43 12 -43 17 29 c19 31 59 70 64 63 2 -2
19 -56 37 -119 18 -63 36 -121 40 -128 4 -8 23 40 44 115 21 70 39 129 41 131
2 2 13 -1 24 -8 21 -11 21 -10 21 150 0 88 -1 160 -3 160 -1 0 -71 -69 -155
-153z"/>
<path d="M4616 4021 l-109 -109 -13 -69 c-25 -127 -24 -127 66 -38 59 59 82
88 86 114 4 19 20 64 36 100 33 71 49 111 45 111 -1 0 -51 -49 -111 -109z"/>
<path d="M5605 3730 c-50 -65 -65 -73 -65 -35 0 14 -4 25 -8 25 -4 0 -34 -26
-66 -59 l-58 -58 -2 -199 c-1 -124 -7 -222 -15 -259 l-13 -60 112 -385 c61
-212 125 -428 141 -481 16 -53 29 -109 29 -125 0 -28 -22 -132 -35 -165 -5
-14 -1 -15 37 -8 67 13 216 10 290 -6 158 -33 298 -116 437 -260 82 -85 180
-218 212 -288 7 -15 15 -27 18 -27 4 0 28 65 54 144 l48 145 -21 197 c-11 108
-18 199 -15 202 3 3 30 -19 60 -48 30 -30 55 -50 55 -44 0 36 -33 266 -55 380
-14 75 -25 140 -23 144 2 4 72 53 156 109 83 56 152 103 152 104 0 1 -64 2
-143 3 -229 2 -406 43 -594 138 -173 87 -337 228 -492 421 -124 156 -155 246
-150 437 2 65 3 118 2 118 -1 0 -23 -27 -48 -60z m-51 -364 c153 -216 305
-375 490 -513 153 -114 313 -203 560 -312 l49 -21 -27 -29 c-37 -39 -57 -108
-63 -229 -5 -95 -7 -101 -21 -80 -52 78 -145 84 -308 18 -42 -16 -103 -46
-135 -65 -33 -19 -70 -35 -82 -35 -48 0 -142 56 -202 122 -158 169 -252 470
-330 1061 -14 106 -28 201 -31 212 -4 19 -4 19 8 1 7 -10 48 -69 92 -130z"/>
<path d="M4070 3081 c-266 -273 -566 -401 -947 -405 -138 -1 -142 -2 -120 -19
20 -16 234 -159 273 -182 16 -10 15 -20 -10 -150 -25 -133 -55 -338 -56 -380
0 -15 12 -7 55 35 30 29 57 52 59 49 3 -2 -4 -95 -16 -206 l-20 -202 50 -147
51 -146 22 44 c60 118 179 268 279 354 118 101 253 169 384 193 70 13 212 14
274 2 40 -8 42 -7 36 13 -20 61 -34 125 -34 154 0 17 39 165 86 328 l86 297
-40 39 -39 40 -13 -53 c-57 -244 -154 -446 -264 -547 -49 -45 -136 -92 -172
-92 -12 0 -64 23 -116 50 -121 64 -199 91 -268 93 -68 2 -113 -16 -138 -55
l-19 -30 -6 99 c-7 114 -27 190 -63 233 l-26 30 54 24 c319 142 502 254 699
427 57 51 77 74 70 83 -5 6 -11 37 -13 68 l-3 56 -95 -97z"/>
</g>
</svg>
